<svg width="161" height="64" viewBox="0 0 161 64" fill="none" xmlns="http://www.w3.org/2000/svg">
<g clip-path="url(#clip0_175_47)">
<path d="M76.2115 31.1173V49.8023H70.2897V3.67817H85.9954C89.7839 3.60461 93.4253 5.03909 96.1839 7.68737C98.9425 10.1517 100.487 13.7196 100.414 17.3977C100.487 21.1127 98.9425 24.6805 96.1839 27.1816C93.4253 29.7931 90.0414 31.1173 86.0322 31.1173H76.2115ZM76.2115 9.34254V25.4529H86.1425C88.3494 25.5264 90.4828 24.6437 91.9908 23.0621C95.1172 20.046 95.154 15.0805 92.1379 11.954L91.9908 11.8069C90.4828 10.1885 88.3494 9.30576 86.1425 9.37932L76.2115 9.34254ZM114.06 17.2138C118.437 17.2138 121.894 18.3908 124.432 20.7081C126.97 23.0621 128.221 26.2621 128.221 30.3448V49.7655H122.556V45.3885H122.299C119.834 48.9931 116.598 50.7954 112.515 50.7954C109.057 50.7954 106.115 49.7655 103.798 47.7058C101.517 45.7931 100.23 42.9609 100.303 39.9816C100.303 36.7081 101.554 34.1333 104.018 32.1839C106.483 30.2345 109.793 29.2782 113.913 29.2782C117.444 29.2782 120.313 29.9402 122.593 31.1908V29.8299C122.593 27.8069 121.71 25.8943 120.166 24.6069C118.584 23.2092 116.561 22.4368 114.464 22.4368C111.154 22.4368 108.543 23.8345 106.593 26.6299L101.37 23.3563C104.202 19.2736 108.432 17.2138 114.06 17.2138ZM106.409 40.1287C106.409 41.6736 107.145 43.1081 108.359 43.9908C109.683 45.0207 111.301 45.5724 112.956 45.5356C115.457 45.5356 117.848 44.5425 119.614 42.777C121.563 40.9379 122.556 38.7678 122.556 36.2667C120.717 34.7954 118.143 34.0598 114.832 34.0598C112.441 34.0598 110.418 34.6483 108.8 35.7885C107.218 36.9655 106.409 38.4 106.409 40.1287ZM160.736 18.2437L140.947 63.7058H134.841L142.198 47.8161L129.177 18.2805H135.614L144.993 40.9379H145.14L154.299 18.2805L160.736 18.2437Z" fill="#5F6368"/>
<path d="M52.2667 27.0713C52.2667 25.269 52.1195 23.4667 51.8253 21.7012H26.8506V31.8897H41.1586C40.5701 35.1632 38.6575 38.1058 35.8621 39.9448V46.5655H44.3954C49.3977 41.9678 52.2667 35.1632 52.2667 27.0713Z" fill="#4285F4"/>
<path d="M26.8506 52.9655C33.9862 52.9655 40.0184 50.6115 44.3954 46.5655L35.8621 39.9448C33.4713 41.5632 30.4184 42.4828 26.8506 42.4828C19.9356 42.4828 14.0874 37.8115 11.9908 31.5586H3.2V38.4C7.68735 47.3012 16.846 52.9655 26.8506 52.9655Z" fill="#34A853"/>
<path d="M11.9908 31.5586C10.8874 28.2851 10.8874 24.7173 11.9908 21.4069V14.6023H3.2C1.33211 18.284 0.35865 22.3543 0.35865 26.4828C0.35865 30.6112 1.33211 34.6815 3.2 38.3632L11.9908 31.5586Z" fill="#FBBC04"/>
<path d="M26.8506 10.4828C30.6391 10.4092 34.2805 11.8437 37.0023 14.4552L44.5425 6.91496C39.7609 2.39082 33.4345 -0.0735495 26.8506 1.37452e-05C16.846 1.37452e-05 7.68735 5.66438 3.2 14.6023L11.9908 21.4437C14.0874 15.154 19.9356 10.4828 26.8506 10.4828Z" fill="#EA4335"/>
</g>
<defs>
<clipPath id="clip0_175_47">
<rect width="160.736" height="64" fill="white"/>
</clipPath>
</defs>
</svg>
