<svg width="200" height="64" viewBox="0 0 200 64" fill="none" xmlns="http://www.w3.org/2000/svg">
<path d="M68.5956 55.1211C62.1934 59.8549 52.8822 62.3771 44.8506 62.3771C33.5994 62.3771 23.5104 58.2255 15.8286 51.3193C15.2464 50.7761 15.7504 50.0397 16.4803 50.4655C24.7357 55.2775 34.9463 58.1473 45.5001 58.1473C53.1135 58.1104 60.6444 56.5681 67.6593 53.6091C68.7455 53.1746 69.6384 54.3455 68.5913 55.1298L68.5956 55.1211Z" fill="black"/>
<path fill-rule="evenodd" clip-rule="evenodd" d="M13.5388 48.3322C13.4282 48.4288 13.29 48.4881 13.1438 48.5017C12.9975 48.5154 12.8507 48.4827 12.7241 48.4082C11.76 47.6116 11.4512 47.1562 10.9932 46.4805L10.9932 46.4805C10.9166 46.3676 10.8359 46.2485 10.7472 46.1206C8.88322 48.0215 7.52542 48.6038 5.1205 48.6038C2.2485 48.6038 0 46.818 0 43.2877C0 40.4939 1.52073 38.6321 3.6454 37.7001C5.20573 37.0182 7.28061 36.799 9.07612 36.6093L9.07618 36.6093C9.42557 36.5724 9.76438 36.5366 10.0868 36.4988V36.0643C10.0868 35.9704 10.0878 35.8746 10.0889 35.7773C10.0969 35.03 10.1059 34.2001 9.65227 33.5811C9.21778 32.962 8.4509 32.6904 7.75136 32.6904C6.43267 32.6904 5.26823 33.3422 4.99667 34.7456C4.92064 35.0563 4.72511 35.3669 4.41445 35.3669L1.11665 35.0172C0.845089 34.9389 0.536599 34.7456 0.612636 34.3198C1.38821 30.2833 4.99667 29.082 8.25755 29.082C9.92383 29.082 12.0985 29.5165 13.4172 30.7874C14.9593 32.2231 14.9498 34.121 14.9396 36.1774C14.9387 36.3458 14.9379 36.5152 14.9379 36.6856V42.0016C14.9379 43.414 15.452 44.1221 16.0084 44.8884L16.0085 44.8885C16.0785 44.985 16.1492 45.0823 16.2196 45.1821C16.4521 45.4928 16.4912 45.8817 16.2196 46.075C15.7455 46.4488 15.0645 47.0302 14.4526 47.5527C14.1113 47.8441 13.7915 48.1172 13.541 48.3257L13.5388 48.3322ZM100.527 48.3713H97.1114C96.9502 48.3606 96.7983 48.2917 96.684 48.1774C96.5697 48.0631 96.5008 47.9112 96.4901 47.75V30.1747C96.5113 30.0158 96.5887 29.8698 96.7083 29.763C96.8278 29.6562 96.9816 29.5958 97.1419 29.5925H100.338C100.482 29.5977 100.62 29.6497 100.733 29.7406C100.845 29.8315 100.924 29.9564 100.959 30.0965V32.773H101.037C102.006 30.3681 103.327 29.2427 105.693 29.2427C107.213 29.2427 108.719 29.7858 109.69 31.3001C110.581 32.697 110.581 35.0628 110.581 36.7703V47.8282C110.555 47.9816 110.475 48.1207 110.355 48.2203C110.236 48.3199 110.085 48.3735 109.929 48.3713H106.501C106.353 48.3574 106.214 48.2974 106.103 48.2C105.991 48.1025 105.913 47.9724 105.88 47.8282V38.2824C105.88 38.1266 105.881 37.9654 105.883 37.8005C105.9 35.9118 105.922 33.5486 103.746 33.5486C102.931 33.5486 102.156 34.0917 101.767 34.9455C101.302 36.0317 101.224 37.081 101.224 38.2824V47.75C101.202 47.9203 101.12 48.0771 100.992 48.1914C100.863 48.3056 100.698 48.3695 100.527 48.3713ZM58.3916 48.3322C58.2809 48.4288 58.1427 48.4881 57.9965 48.5017C57.8503 48.5154 57.7035 48.4827 57.5769 48.4082C56.6098 47.6092 56.3005 47.1534 55.8396 46.4743L55.8396 46.4743L55.8395 46.474C55.7641 46.363 55.6847 46.2461 55.5978 46.1206C53.736 48.0215 52.376 48.6038 49.9711 48.6038C47.1012 48.6038 44.8506 46.818 44.8506 43.2877C44.8506 40.4939 46.3713 38.6321 48.4981 37.7001C50.0567 37.0181 52.1314 36.799 53.927 36.6093C54.2763 36.5724 54.615 36.5366 54.9373 36.4988V36.0643C54.9373 35.9704 54.9384 35.8746 54.9394 35.7773V35.7773C54.9475 35.03 54.9565 34.2001 54.5028 33.5811C54.0683 32.962 53.2993 32.6904 52.6019 32.6904C51.2811 32.6904 50.1188 33.3422 49.8472 34.7456C49.769 35.0563 49.5757 35.3669 49.265 35.3669L45.9672 35.0172C45.6956 34.9389 45.385 34.7456 45.461 34.3198C46.2388 30.2833 49.8472 29.082 53.1059 29.082C54.7744 29.082 56.9469 29.5165 58.2655 30.7874C59.8077 32.2231 59.7982 34.121 59.788 36.1774L59.7879 36.1788C59.7871 36.3467 59.7863 36.5157 59.7863 36.6856V42.0016C59.7863 43.4121 60.299 44.1201 60.853 44.8852L60.8531 44.8854C60.9237 44.9829 60.9949 45.0812 61.0659 45.1821C61.2983 45.4928 61.3374 45.8817 61.0659 46.075C60.5859 46.4544 59.8911 47.0478 59.2722 47.5763L59.2722 47.5764L59.2719 47.5766C58.9412 47.8591 58.6322 48.1229 58.3894 48.3257L58.3916 48.3322ZM63.7836 51.8234C65.841 51.5518 70.4575 51.0087 71.2721 52.0558C72.0754 53.1156 70.4241 57.2422 69.6229 59.2443L69.5646 59.3901C69.3321 59.9723 69.8361 60.2113 70.3792 59.7768C73.8335 56.9069 74.7263 50.8544 74.0268 50.0007C73.3273 49.1469 67.3226 48.3626 63.6294 50.9696C63.0472 51.3585 63.1623 51.9016 63.7836 51.8234ZM63.9009 30.2138V32.7339H63.9031C63.9109 32.9014 63.983 33.0595 64.1044 33.1752C64.2258 33.2909 64.3871 33.3554 64.5549 33.3552H70.4205L63.6685 43.0162C63.3503 43.5267 63.1985 44.1233 63.234 44.7238V47.2851C63.234 47.6718 63.6598 48.0607 64.0487 47.8651C67.8505 45.81 72.4691 46.0033 75.9212 47.8282C76.347 48.0607 76.7359 47.6327 76.7359 47.246V44.5673C76.7301 44.3694 76.6735 44.1764 76.5716 44.0067C76.4696 43.837 76.3257 43.6964 76.1537 43.5984C74.2136 42.5122 71.9239 42.2015 69.7514 42.2406L75.5714 33.9375C76.1146 33.1619 76.4252 32.697 76.4252 32.3472V30.2138C76.4174 30.0463 76.3453 29.8883 76.2239 29.7725C76.1025 29.6568 75.9412 29.5923 75.7735 29.5925H64.5201C64.4375 29.5885 64.355 29.6018 64.2779 29.6316C64.2008 29.6614 64.1308 29.7071 64.0725 29.7656C64.0141 29.8242 63.9687 29.8943 63.9392 29.9715C63.9096 30.0487 63.8966 30.1313 63.9009 30.2138ZM19.4762 48.3713H22.8891C23.0569 48.3774 23.2211 48.3214 23.3502 48.2139C23.4792 48.1065 23.5642 47.9552 23.5887 47.7891V38.4779L23.5885 38.2921C23.5862 36.2565 23.5833 33.6268 25.9545 33.6268C28.1217 33.6268 28.0858 35.9866 28.0572 37.8728C28.054 38.0816 28.0509 38.2846 28.0509 38.4779V47.7826C28.0615 47.9435 28.1301 48.0951 28.244 48.2093C28.3578 48.3236 28.5092 48.3927 28.6701 48.4039H32.0939C32.2616 48.4041 32.4229 48.3396 32.5443 48.2239C32.6657 48.1082 32.7378 47.9501 32.7456 47.7826V38.4714C32.7456 38.382 32.7453 38.2889 32.745 38.193C32.7417 37.205 32.7375 35.9092 33.0563 35.0954C33.2211 34.6815 33.5036 34.3249 33.8689 34.0697C34.2341 33.8145 34.666 33.6719 35.1114 33.6594C36.1194 33.6594 36.8581 34.0157 37.1296 35.1801C37.2504 35.7212 37.2287 36.9845 37.2135 37.8617C37.2094 38.1045 37.2057 38.3178 37.2057 38.4779V47.7891C37.2164 47.9501 37.2854 48.1018 37.3997 48.2157C37.5141 48.3296 37.6659 48.3981 37.827 48.4083H41.203C41.3704 48.4085 41.5314 48.3443 41.6527 48.229C41.774 48.1138 41.8464 47.9562 41.8548 47.7891V36.6921C41.8548 36.4098 41.8599 36.1223 41.8651 35.8326V35.8323V35.8321V35.8318V35.8316C41.8947 34.1713 41.9257 32.4385 41.001 31.1828C40.5435 30.5674 39.9456 30.0703 39.2571 29.7329C38.5685 29.3954 37.8093 29.2274 37.0427 29.2427C35.0245 29.2427 33.1236 30.2899 32.3089 32.5014C31.3791 30.2899 30.0213 29.2427 27.8858 29.2427C25.7915 29.2427 24.2013 30.2899 23.3866 32.5014H23.3084V30.2138C23.296 30.0568 23.2254 29.9101 23.1105 29.8024C22.9955 29.6947 22.8446 29.6338 22.6871 29.6316H19.5066C19.3392 29.6314 19.1782 29.6956 19.0569 29.8109C18.9356 29.9261 18.8632 30.0836 18.8548 30.2508V47.7891C18.8803 47.9408 18.9548 48.08 19.0671 48.1852C19.1794 48.2904 19.3231 48.3558 19.4762 48.3713ZM93.9701 39.1362C93.9701 33.5877 91.2154 29.2427 86.1318 29.2427C81.1655 29.2427 78.4109 33.5116 78.45 38.9819C78.45 44.4131 81.1655 48.758 86.1318 48.758C90.9416 48.758 93.9701 44.4913 93.9701 39.1362ZM83.4553 38.4388C83.4553 36.3032 83.6095 32.8512 86.1318 32.8512C87.218 32.8512 87.9936 33.3161 88.3825 34.5587C88.8083 35.9556 88.8865 37.7392 88.8865 39.2143C88.8865 41.4563 88.7322 45.1495 86.0927 45.1495C83.4536 45.1495 83.4547 40.7013 83.4553 38.5297L83.4553 38.4388ZM54.9332 40.1993L54.933 39.9899V39.2535C52.4586 39.2535 49.8516 39.7966 49.8516 42.7055C49.8516 44.1806 50.6272 45.1886 51.9459 45.1886C52.9148 45.1886 53.7686 44.6064 54.3117 43.6375C54.9369 42.4981 54.9352 41.4289 54.9332 40.1993ZM10.1261 40.1993C10.126 40.13 10.1259 40.0603 10.1259 39.9899V39.2535C7.6493 39.2535 5.04234 39.7966 5.04234 42.7055C5.04234 44.1806 5.81791 45.1886 7.13877 45.1886C8.10769 45.1886 8.96147 44.6021 9.50459 43.6375C10.1298 42.4981 10.1281 41.4289 10.1261 40.1993Z" fill="black"/>
<path d="M193.289 6.26669L199.372 46.3204C199.28 48.1445 198.55 49.8784 197.31 51.2194C196.441 52.1291 195.36 52.8091 194.164 53.1985C192.028 39.0832 189.892 24.9702 187.755 10.8593C187.639 10.0912 187.369 9.35433 186.963 8.69231C186.556 8.03029 186.021 7.4566 185.389 7.00523C184.757 6.55386 184.04 6.234 183.282 6.0646C182.524 5.89519 181.739 5.8797 180.975 6.01902L123.387 16.5142C123.331 16.499 122.275 16.1883 122.017 15.2455C121.775 14.3765 122.327 13.3163 123.387 12.9188L184.492 0.155539C185.474 -0.0492834 186.487 -0.0518405 187.469 0.148021C188.451 0.347882 189.383 0.745961 190.206 1.31794C191.029 1.88991 191.727 2.62376 192.257 3.47464C192.787 4.32552 193.138 5.27556 193.289 6.26669Z" fill="#FF9900"/>
<path fill-rule="evenodd" clip-rule="evenodd" d="M121.106 58.0714L115.167 19.4014L116.107 19.7881C117.452 20.3361 118.919 20.5132 120.355 20.3009L177.043 11.9738C178.777 11.7624 180.526 12.2335 181.92 13.2874C183.313 14.3414 184.243 15.8957 184.512 17.6222L190.432 55.6621C190.592 56.6927 190.528 57.7459 190.243 58.7492C189.958 59.7526 189.459 60.6823 188.78 61.4745C188.102 62.2668 187.26 62.9027 186.312 63.3387C185.365 63.7746 184.334 64.0002 183.291 64H128.017C126.347 64.0002 124.732 63.4025 123.464 62.315C122.197 61.2275 121.36 59.7221 121.106 58.0714ZM169.411 46.9027C167.271 41.6598 165.141 36.4162 163.022 31.1719C162.936 30.9551 162.867 30.7321 162.816 30.5049C162.761 30.2355 162.892 30.0183 163.161 30.0183C163.718 30.0038 164.268 30.0086 164.817 30.0135C165.091 30.0159 165.364 30.0183 165.638 30.0183C165.794 30.0174 165.946 30.0677 166.071 30.1614C166.196 30.2552 166.288 30.3872 166.331 30.5375C166.398 30.7173 166.466 30.8974 166.535 31.0778C166.696 31.5034 166.858 31.9313 167.011 32.3645C168.405 36.2315 169.8 40.0949 171.195 43.9547C171.22 44.0122 171.239 44.0645 171.267 44.1413C171.274 44.1631 171.283 44.1868 171.293 44.2132C171.461 43.7183 171.631 43.2344 171.798 42.7577C171.908 42.4435 172.018 42.1325 172.125 41.8235L175.887 31.0133C175.91 30.9539 175.934 30.8948 175.959 30.8354C175.993 30.7514 176.028 30.6666 176.059 30.5788C176.115 30.4053 176.228 30.2557 176.379 30.1537C176.53 30.0518 176.711 30.0033 176.893 30.0161C177.13 30.0161 177.368 30.0149 177.607 30.0137C178.086 30.0113 178.567 30.0089 179.044 30.0161C179.346 30.0161 179.487 30.1877 179.444 30.4919C179.407 30.696 179.349 30.8956 179.27 31.0871C176.743 37.5654 174.199 44.0372 171.638 50.5025C171.359 51.1908 171.026 51.8562 170.643 52.4925C169.691 54.1023 168.221 54.8496 166.372 54.8061C165.758 54.7826 165.147 54.7099 164.545 54.5889C163.963 54.4976 163.745 54.2217 163.745 53.6287C163.745 53.5109 163.744 53.3949 163.743 53.2785C163.741 53.0449 163.738 52.81 163.745 52.5576C163.756 52.1796 163.941 52.0167 164.308 52.0384C164.443 52.0493 164.578 52.071 164.713 52.0927C164.848 52.1144 164.984 52.1362 165.118 52.147C165.676 52.2096 166.241 52.1691 166.785 52.0275C167.15 51.9286 167.488 51.7477 167.772 51.4984C168.057 51.2492 168.281 50.9383 168.427 50.5894C168.622 50.171 168.793 49.7404 168.964 49.3103C169.115 48.9296 169.266 48.5492 169.433 48.1779C169.525 47.9773 169.571 47.7585 169.567 47.5378C169.563 47.3171 169.51 47.1001 169.411 46.9027ZM152.957 47.7022C151.54 47.9194 150.146 47.8325 148.86 47.1199C148.221 46.7799 147.676 46.2891 147.271 45.69C146.866 45.091 146.613 44.402 146.535 43.6831C146.337 42.5594 146.484 41.4021 146.957 40.3636C147.615 39.0014 148.74 38.1585 150.135 37.6719C151.295 37.2949 152.519 37.1517 153.735 37.2504C154.901 37.3235 156.059 37.5009 157.193 37.7805C157.215 37.7859 157.237 37.7859 157.26 37.7859C157.283 37.7859 157.307 37.7859 157.334 37.7914C157.346 37.7414 157.353 37.6905 157.356 37.6393C157.353 37.3402 157.351 37.0411 157.35 36.7421C157.348 36.1439 157.345 35.5458 157.324 34.9476C157.326 34.3108 157.125 33.6899 156.75 33.1749C156.296 32.5796 155.638 32.3754 154.934 32.2668C153.595 32.0889 152.235 32.1404 150.913 32.4189C150.228 32.5477 149.551 32.7254 148.875 32.9027C148.708 32.9466 148.54 32.9905 148.373 33.0337C147.865 33.1553 147.647 33.0228 147.637 32.5036C147.637 32.3848 147.638 32.2661 147.639 32.1473C147.641 31.9098 147.644 31.6723 147.637 31.4347C147.618 31.2505 147.665 31.0657 147.77 30.9133C147.875 30.7608 148.031 30.6507 148.21 30.6027C148.317 30.5661 148.424 30.5289 148.531 30.4916C149.062 30.3074 149.604 30.1194 150.146 29.9748C151.17 29.7271 152.217 29.5816 153.27 29.5403C153.305 29.5363 153.343 29.5293 153.381 29.522C153.446 29.5098 153.514 29.4969 153.583 29.4969H153.583C154.015 29.4969 154.447 29.4969 154.869 29.486C155.063 29.513 155.257 29.5347 155.451 29.5563C155.646 29.5781 155.842 29.5999 156.037 29.6272C156.867 29.7222 157.668 29.983 158.395 30.3941C159.648 31.1393 160.243 32.2863 160.448 33.6811C160.519 34.1424 160.552 34.609 160.545 35.0758V46.5356C160.547 46.6363 160.544 46.7371 160.534 46.8375C160.531 46.973 160.474 47.1016 160.377 47.1964C160.281 47.2912 160.151 47.3448 160.015 47.3459H158.253C158.104 47.339 157.963 47.2781 157.855 47.1746C157.748 47.0711 157.681 46.932 157.669 46.7832C157.616 46.5024 157.573 46.2216 157.528 45.9326C157.511 45.8214 157.494 45.709 157.476 45.5949C157.413 45.6268 157.354 45.667 157.302 45.7144C156.062 46.7609 154.559 47.4483 152.957 47.7022ZM151.777 39.8226C150.913 40.1029 150.274 40.6112 150.005 41.5085C149.798 42.1911 149.802 42.9201 150.015 43.6005C150.11 43.9288 150.281 44.23 150.514 44.4799C150.747 44.7298 151.035 44.9213 151.356 45.0387C151.935 45.2549 152.56 45.3222 153.172 45.2342C154.64 45.0692 156.036 44.5124 157.215 43.6223C157.269 43.5878 157.312 43.5396 157.341 43.4827C157.369 43.4257 157.382 43.3622 157.378 43.2986C157.371 42.9978 157.377 42.6993 157.382 42.3972C157.385 42.1931 157.389 41.9872 157.389 41.7778C157.389 41.6043 157.388 41.4322 157.386 41.2606C157.384 40.9188 157.382 40.5789 157.389 40.2332C157.389 40.0594 157.334 39.9725 157.161 39.9508C156.823 39.9072 156.488 39.8558 156.155 39.8045C155.591 39.7178 155.029 39.6314 154.458 39.5837C153.558 39.479 152.645 39.5603 151.777 39.8226ZM130.826 54.4064H128.545C128.473 54.4091 128.401 54.397 128.334 54.3708C128.267 54.3447 128.206 54.305 128.155 54.2543C128.104 54.2035 128.064 54.1429 128.037 54.076C128.01 54.0091 127.997 53.9374 128 53.8655V30.9199C128 30.1747 128.141 30.0335 128.886 30.0335H130.129C130.626 30.0335 130.876 30.2486 130.95 30.7461C130.998 31.005 131.037 31.2708 131.076 31.5298C131.081 31.5641 131.086 31.5984 131.091 31.6324C131.098 31.6851 131.112 31.7364 131.134 31.7845C131.217 31.7209 131.298 31.6586 131.376 31.5974C131.553 31.4598 131.722 31.3279 131.901 31.2001C133.109 30.3136 134.523 29.7518 136.009 29.5686L136.474 29.5034H137.374C137.49 29.5211 137.606 29.5365 137.722 29.5519C137.961 29.5836 138.199 29.6151 138.432 29.6663C140.735 30.1421 142.26 31.5368 143.179 33.655C143.917 35.3734 144.102 37.1896 144.048 39.0384C144.039 40.6949 143.658 42.3284 142.933 43.8178C141.94 45.8078 140.404 47.1569 138.199 47.5914C135.766 48.0671 133.539 47.5371 131.604 45.9251C131.559 45.8802 131.507 45.8368 131.423 45.7678C131.406 45.7534 131.387 45.7378 131.367 45.7209V53.8655C131.368 53.9367 131.354 54.0072 131.327 54.0731C131.3 54.139 131.26 54.1989 131.21 54.2492C131.159 54.2996 131.1 54.3394 131.034 54.3664C130.968 54.3934 130.897 54.407 130.826 54.4064ZM131.358 37.0597C131.357 37.5649 131.356 38.0705 131.356 38.5778C131.356 39.0548 131.357 39.5308 131.358 40.0063C131.361 41.051 131.363 42.0934 131.354 43.14C131.349 43.2107 131.363 43.2815 131.395 43.3446C131.427 43.4078 131.476 43.461 131.536 43.4984C132.755 44.3479 134.059 44.9344 135.579 44.9996C137.765 45.0974 139.451 44.2219 140.185 41.9191C140.503 40.8458 140.649 39.7292 140.619 38.6104C140.655 37.3995 140.476 36.1919 140.092 35.0432C139.399 33.151 138.08 32.3624 136.468 32.2429C134.652 32.1017 133.02 32.6426 131.539 33.6702C131.478 33.7064 131.428 33.759 131.396 33.822C131.364 33.8851 131.35 33.9559 131.356 34.0265C131.363 35.0428 131.361 36.0504 131.358 37.0597Z" fill="#FF9900"/>
</svg>
