<svg width="204" height="64" viewBox="0 0 204 64" fill="none" xmlns="http://www.w3.org/2000/svg">
<g clip-path="url(#clip0_175_54)">
<path d="M203.166 18.9036C201.316 13.6148 196.275 9.81698 190.354 9.81698H190.23C186.381 9.81698 182.912 11.419 180.443 13.9908C177.969 11.419 174.5 9.81698 170.656 9.81698H170.532C167.148 9.81698 164.055 11.0559 161.68 13.1065V12.0641C161.599 11.026 160.744 10.21 159.689 10.21H150.607C149.496 10.21 148.599 11.1071 148.599 12.2221V61.543C148.599 62.658 149.496 63.5551 150.607 63.5551H159.689C160.702 63.5551 161.535 62.7989 161.667 61.8206L161.663 26.4139C161.663 26.29 161.667 26.1747 161.68 26.0593C161.825 24.4787 162.983 23.18 164.811 23.0176H165.149H166.102H166.486C167.251 23.086 167.896 23.3551 168.404 23.761C169.194 24.3889 169.635 25.3544 169.635 26.4139L169.669 61.6455C169.669 62.7605 170.57 63.6619 171.677 63.6619H180.759C181.831 63.6619 182.703 62.8075 182.754 61.7437L182.75 26.3669C182.745 25.2049 183.284 24.154 184.228 23.5303C184.693 23.2312 185.253 23.0304 185.898 22.9706H186.236H187.188H187.573C189.538 23.1415 190.726 24.6325 190.721 26.3669L190.756 61.5515C190.756 62.6665 191.657 63.5636 192.763 63.5636H201.846C202.952 63.5636 203.854 62.6665 203.854 61.5515V23.7097C203.854 21.1294 203.563 20.0315 203.166 18.9036Z" fill="#54C1F0"/>
<path d="M141.68 10.3387H136.485V1.92273C136.485 1.91419 136.485 1.90564 136.485 1.8971C136.485 0.884623 135.665 0.0643903 134.653 0.0643903C134.533 0.0643903 134.418 0.0814778 134.306 0.102838C128.548 1.6835 129.701 9.65941 119.188 10.3387H118.953H118.167C118.013 10.3387 117.868 10.36 117.727 10.3899C116.83 10.5907 116.155 11.3896 116.155 12.3465V21.4289C116.155 22.5354 117.056 23.4368 118.167 23.4368H123.648L123.639 61.9493C123.639 63.0472 124.528 63.9358 125.626 63.9358H134.606C135.699 63.9358 136.588 63.0472 136.588 61.9493L136.592 23.4368H141.68C142.787 23.4368 143.688 22.5354 143.688 21.4289V12.3465C143.688 11.2401 142.787 10.3387 141.68 10.3387Z" fill="#54C1F0"/>
<path d="M109.003 10.3387H99.9203C98.8138 10.3387 97.9167 11.2401 97.9167 12.3466V31.1265C97.8953 32.2885 96.9555 33.2198 95.7892 33.2198H91.9871C90.808 33.2198 89.8553 32.2714 89.8553 31.0923L89.8211 12.3466C89.8211 11.2401 88.9197 10.3387 87.8133 10.3387H78.7309C77.6202 10.3387 76.723 11.2401 76.723 12.3466V32.9293C76.723 40.7472 82.2981 46.3222 90.1202 46.3222C90.1202 46.3222 95.99 46.3222 96.1694 46.3564C97.2289 46.476 98.0534 47.3646 98.0534 48.4582C98.0534 49.539 97.246 50.4233 96.1993 50.5558C96.148 50.5643 96.1011 50.5771 96.0455 50.5857L82.7637 50.6327C81.653 50.6327 80.7559 51.5341 80.7559 52.6405V61.7186C80.7559 62.8294 81.653 63.7265 82.7637 63.7265H97.6134C105.44 63.7265 111.011 58.1558 111.011 50.3336V12.3466C111.011 11.2401 110.113 10.3387 109.003 10.3387Z" fill="#233266"/>
<path d="M21.0916 26.9803V31.2182V32.5853C21.0916 33.7601 20.1389 34.717 18.9641 34.717L13.2011 34.7213V23.4901H18.9641C20.1389 23.4901 21.0916 24.4385 21.0916 25.6176V26.9803ZM21.8905 10.3364H2.03826C0.94889 10.3364 0.0688477 11.2208 0.0688477 12.3059V21.2045C0.0688477 21.2216 0.0731194 21.2387 0.0731194 21.2558C0.0731194 21.2985 0.0688477 21.3412 0.0688477 21.3797V49.9212V61.6566C0.0688477 62.7502 0.88908 63.6431 1.90583 63.6687H2.07671H11.1591C12.2655 63.6687 13.1669 62.7716 13.1669 61.6608L13.2011 47.8578H21.8905C29.1615 47.8578 34.2281 42.8126 34.2281 35.5116V22.6998C34.2281 15.3988 29.1615 10.3364 21.8905 10.3364Z" fill="#233266"/>
<path d="M58.7757 48.303V49.7213C58.7757 49.8366 58.7586 49.9477 58.7415 50.0545C58.7202 50.157 58.6903 50.2553 58.6561 50.3493C58.3741 51.1439 57.5795 51.7206 56.6354 51.7206H52.8547C51.6756 51.7206 50.7144 50.8235 50.7144 49.7213V48.0082C50.7144 47.9868 50.7101 47.9655 50.7101 47.9441L50.7144 43.3858V43.3773V42.8732V41.959L50.7186 41.9462C50.7229 40.8483 51.6756 39.9597 52.8547 39.9597H56.6354C57.8188 39.9597 58.7757 40.8525 58.7757 41.959V48.303ZM57.3318 10.3885H44.7292C43.6142 10.3885 42.7128 11.2344 42.7128 12.2725V15.8055C42.7128 15.8269 42.7171 15.8525 42.7171 15.8739C42.7171 15.8995 42.7128 15.9251 42.7128 15.9508V20.791C42.7128 21.8889 43.6698 22.786 44.8488 22.786H56.849C57.7974 22.9356 58.5493 23.6276 58.6561 24.7085V25.879C58.5493 26.9086 57.806 27.6604 56.9003 27.7459H50.9579C43.0546 27.7459 37.424 32.9962 37.424 40.3698V50.6611V50.9303C37.424 58.2611 42.2643 63.4773 50.112 63.4773H66.5808C69.537 63.4773 71.9336 61.2387 71.9336 58.4833V24.0207C71.9336 15.6645 67.6274 10.3885 57.3318 10.3885Z" fill="#233266"/>
</g>
<defs>
<clipPath id="clip0_175_54">
<rect width="203.904" height="64" fill="white"/>
</clipPath>
</defs>
</svg>
