<svg width="236" height="64" viewBox="0 0 236 64" fill="none" xmlns="http://www.w3.org/2000/svg">
<g clip-path="url(#clip0_175_66)">
<path d="M161.814 50.2842V38.665C161.814 35.8052 160.741 34.3753 158.061 34.3753C156.988 34.3753 155.737 34.5544 155.022 34.7325V51.7141C155.022 52.2504 154.485 52.7868 153.949 52.7868H149.837C149.301 52.7868 148.765 52.2504 148.765 51.7141V31.8728C148.765 31.1573 149.301 30.622 149.837 30.4429C152.519 29.5493 155.2 29.013 158.06 29.013C164.495 29.013 168.07 32.4091 168.07 38.6659V51.8932C168.07 52.4295 167.533 52.9658 166.997 52.9658H164.495C162.887 52.9649 161.814 51.7141 161.814 50.2842ZM177.902 43.3129L177.723 44.9219C177.723 47.0672 179.153 48.318 181.476 48.318C183.263 48.318 184.872 47.7816 186.66 46.8881C186.839 46.8881 187.018 46.709 187.197 46.709C187.554 46.709 187.733 46.8881 187.912 47.0662C188.091 47.2453 188.448 47.7816 188.448 47.7816C188.806 48.318 189.164 49.0324 189.164 49.5688C189.164 50.4623 188.628 51.3559 187.913 51.7141C185.947 52.7868 183.623 53.3231 181.121 53.3231C178.261 53.3231 175.937 52.6077 174.149 51.1778C172.362 49.5688 171.29 47.4244 171.29 44.7428V37.7714C171.29 32.23 174.865 28.8339 180.943 28.8339C186.841 28.8339 190.237 32.0518 190.237 37.7714V42.0611C190.237 42.5974 189.701 43.1338 189.165 43.1338H177.904L177.902 43.3129ZM177.723 39.3804H184.515V37.5933C184.515 35.448 183.264 34.0181 181.119 34.0181C178.974 34.0181 177.723 35.2689 177.723 37.5933V39.3804ZM223.305 43.3129L223.126 44.9219C223.126 47.0672 224.556 48.318 226.879 48.318C228.667 48.318 230.275 47.7816 232.064 46.8881C232.243 46.8881 232.421 46.709 232.6 46.709C232.957 46.709 233.136 46.8881 233.315 47.0662C233.494 47.2453 233.852 47.7816 233.852 47.7816C234.209 48.318 234.567 49.0324 234.567 49.5688C234.567 50.4623 234.031 51.3559 233.316 51.7141C231.35 52.7868 229.027 53.3231 226.524 53.3231C223.664 53.3231 221.34 52.6077 219.553 51.1778C217.766 49.5688 216.693 47.4244 216.693 44.7428V37.7714C216.693 32.23 220.268 28.8339 226.346 28.8339C232.245 28.8339 235.641 32.0518 235.641 37.7714V42.0611C235.641 42.5974 235.104 43.1338 234.568 43.1338H223.307V43.3129H223.305ZM223.126 39.3804H229.918V37.5933C229.918 35.448 228.667 34.0181 226.522 34.0181C224.377 34.0181 223.126 35.2689 223.126 37.5933V39.3804ZM118.02 52.9649H120.522C121.059 52.9649 121.595 52.4286 121.595 51.8922V38.665C121.595 32.5872 118.377 29.012 113.015 29.012C111.406 29.012 109.618 29.3693 108.546 29.7274V23.1133C108.546 21.6834 107.295 20.4317 105.864 20.4317H103.362C102.825 20.4317 102.289 20.968 102.289 21.5044V51.8922C102.289 52.4286 102.825 52.9649 103.362 52.9649H107.473C108.009 52.9649 108.546 52.4286 108.546 51.8922V35.0898C109.439 34.7325 110.691 34.5535 111.585 34.5535C114.266 34.5535 115.338 35.8043 115.338 38.8431V50.4623C115.517 51.7141 116.59 52.9649 118.02 52.9649ZM145.011 37.9496V44.5637C145.011 50.1051 141.258 53.5012 135.001 53.5012C128.923 53.5012 124.991 50.1051 124.991 44.5637V37.9496C124.991 32.4081 128.744 29.012 135.001 29.012C141.258 29.012 145.011 32.4091 145.011 37.9496ZM138.756 37.9496C138.756 35.8043 137.505 34.3744 135.18 34.3744C132.856 34.3744 131.605 35.6252 131.605 37.9496V44.5637C131.605 46.709 132.856 47.9598 135.18 47.9598C137.505 47.9598 138.756 46.709 138.756 44.5637V37.9496ZM98.8938 34.9116C98.8938 40.6322 94.6041 44.5646 88.8835 44.5646C87.4537 44.5646 86.2019 44.3855 84.9511 43.8492V51.8932C84.9511 52.4295 84.4148 52.9658 83.8784 52.9658H79.7669C79.2306 52.9658 78.6942 52.4295 78.6942 51.8932V23.4715C78.6942 22.7561 79.2306 22.2207 79.7669 22.0416C82.4485 21.1481 85.1292 20.6117 87.989 20.6117C94.424 20.6117 98.8928 24.5442 98.8928 30.6219C98.8938 30.621 98.8938 34.9116 98.8938 34.9116ZM92.4588 30.2638C92.4588 27.404 90.4925 25.9741 87.8109 25.9741C86.2019 25.9741 85.1292 26.5104 85.1292 26.5104V38.3078C86.2019 38.8441 86.7382 39.0232 87.989 39.0232C90.6707 39.0232 92.6369 37.4142 92.6369 34.7335V30.2647H92.4588V30.2638ZM214.368 34.9116C214.368 40.6322 210.078 44.5646 204.357 44.5646C202.927 44.5646 201.676 44.3855 200.425 43.8492V51.8932C200.425 52.4295 199.889 52.9658 199.352 52.9658H195.241C194.704 52.9658 194.168 52.4295 194.168 51.8932V23.4715C194.168 22.7561 194.704 22.2207 195.241 22.0416C197.922 21.1481 200.603 20.6117 203.463 20.6117C209.898 20.6117 214.367 24.5442 214.367 30.6219C214.368 30.621 214.368 34.9116 214.368 34.9116ZM207.933 30.2638C207.933 27.404 205.966 25.9741 203.285 25.9741C201.676 25.9741 200.603 26.5104 200.603 26.5104V38.3078C201.676 38.8441 202.212 39.0232 203.463 39.0232C206.144 39.0232 208.111 37.4142 208.111 34.7335V30.2647H207.933V30.2638Z" fill="#5F259F"/>
<path d="M31.9969 63.9969C49.6682 63.9969 63.9937 49.6714 63.9937 32C63.9937 14.3287 49.6682 0.00317383 31.9969 0.00317383C14.3255 0.00317383 -7.62939e-06 14.3287 -7.62939e-06 32C-7.62939e-06 49.6714 14.3255 63.9969 31.9969 63.9969Z" fill="#5F259F"/>
<path d="M46.5192 23.6497C46.5192 22.3989 45.4466 21.3262 44.1958 21.3262H39.9061L30.0749 10.0652C29.1814 8.99253 27.7515 8.63529 26.3216 8.99253L22.9255 10.0652C22.3891 10.2443 22.21 10.9588 22.5682 11.316L33.2929 21.5053H17.0249C16.4886 21.5053 16.1313 21.8625 16.1313 22.3989V24.186C16.1313 25.4368 17.204 26.5095 18.4548 26.5095H20.9574V35.0898C20.9574 41.5248 24.3535 45.2791 30.074 45.2791C31.8611 45.2791 33.292 45.1 35.0791 44.3855V50.106C35.0791 51.715 36.3299 52.9658 37.9389 52.9658H40.4415C40.9778 52.9658 41.5141 52.4295 41.5141 51.8932V26.3313H45.6257C46.162 26.3313 46.5192 25.9741 46.5192 25.4378V23.6497ZM35.0791 39.0222C34.0065 39.5586 32.5766 39.7377 31.5039 39.7377C28.6441 39.7377 27.2142 38.3078 27.2142 35.0898V26.5095H35.0791V39.0222Z" fill="white"/>
</g>
<defs>
<clipPath id="clip0_175_66">
<rect width="235.641" height="64" fill="white"/>
</clipPath>
</defs>
</svg>
