<svg width="458" height="104" viewBox="0 0 458 104" fill="none" xmlns="http://www.w3.org/2000/svg">
<g clip-path="url(#clip0_175_103)">
<path d="M435.363 0L457.786 41.0334L410.645 82.043L435.363 0Z" fill="#088B45"/>
<path d="M419.634 0L442.057 41.0334L394.88 82.043L419.634 0Z" fill="#F17A21"/>
<path d="M109.618 79.3417C111.683 77.9689 113.218 75.9322 113.968 73.5686L121.439 49.0059C121.795 48.0711 121.9 47.0592 121.743 46.0712C121.586 45.0833 121.172 44.1539 120.542 43.3762C119.836 42.5975 118.963 41.9887 117.988 41.5954C117.013 41.2021 115.962 41.0345 114.913 41.1052C117.438 41.0798 119.89 40.2555 121.917 38.7505C123.961 37.4006 125.483 35.3935 126.232 33.061L133.69 8.51028C134.075 7.5422 134.211 6.49272 134.083 5.45868C133.956 4.42464 133.57 3.43935 132.961 2.59372C132.274 1.77204 131.4 1.12644 130.412 0.710647C129.425 0.294851 128.352 0.120876 127.284 0.203194H30.0251L5.30698 81.6725H102.59C105.127 81.6418 107.588 80.8045 109.618 79.2819M42.8861 16.16H106.964C107.8 16.3428 108.592 16.6908 109.291 17.1834C109.991 17.6759 110.586 18.3033 111.04 19.0286C111.353 20.0351 111.514 21.0824 111.518 22.1363C111.517 22.6966 111.473 23.2561 111.387 23.8097L111.195 24.3595L110.586 26.4034C109.686 28.2464 108.327 29.8269 106.64 30.9929C104.953 32.1588 102.994 32.871 100.952 33.061H37.7584L42.8861 16.16ZM100.534 59.5242C99.596 61.2426 98.2538 62.7066 96.6231 63.7895C94.9924 64.8725 93.1223 65.5418 91.1748 65.7396H27.8258L32.9176 49.0059H96.8882C97.9982 49.2259 99.0256 49.7488 99.8568 50.5167C100.688 51.2846 101.29 52.2675 101.598 53.3566C101.684 53.842 101.728 54.3339 101.729 54.8268C101.729 55.0778 101.729 55.3288 101.729 55.5798V55.9025L100.534 59.5242Z" fill="#6E6F71"/>
<path d="M235.623 0.322723L225.845 33.0132H155.671L165.437 0.322723H147.986L123.722 81.4693H141.173L150.914 48.9102H221.1L211.347 81.4693H228.81L253.073 0.322723H235.623Z" fill="#6E6F71"/>
<path d="M258.153 81.7322H240.583L265.014 0.597626H282.573L258.153 81.7322Z" fill="#6E6F71"/>
<path d="M404.741 0.525909L331.841 57.3369L306.43 18.4788L294.693 0.525909H294.358L288.824 18.9688L270.082 81.4214H287.533L300.669 37.6389L328.507 81.529L374.584 42.671L363.026 81.4214H380.489L397.533 24.6344L404.765 0.525909H404.741Z" fill="#6E6F71"/>
<path d="M0 103.51L3.11964 91.5573H6.60982C7.33743 91.5348 8.06559 91.5788 8.7852 91.6888C9.1796 91.7557 9.55243 91.9155 9.87289 92.1549C10.2288 92.415 10.4825 92.7913 10.59 93.2187C10.7211 93.7 10.7211 94.2076 10.59 94.6889C10.44 95.3014 10.1162 95.8575 9.65774 96.2905C9.17786 96.736 8.58784 97.0455 7.94851 97.187C8.27637 97.2107 8.59444 97.3092 8.8783 97.475C9.16216 97.6407 9.40426 97.8693 9.58603 98.1432C9.75574 98.4462 9.86041 98.7813 9.89333 99.1271C9.92626 99.4728 9.88673 99.8216 9.77727 100.151C9.63007 100.633 9.39503 101.082 9.08401 101.478C8.78757 101.92 8.40552 102.298 7.96046 102.59C7.4883 102.933 6.95162 103.177 6.38271 103.307C5.43149 103.469 4.46666 103.537 3.50213 103.51H0ZM2.61763 101.884H3.39455C3.99367 101.893 4.59269 101.861 5.18745 101.789C5.53371 101.746 5.87195 101.654 6.19147 101.514C6.50207 101.354 6.77824 101.135 7.00425 100.868C7.21128 100.606 7.36551 100.305 7.45845 99.9839C7.56122 99.6571 7.56122 99.3067 7.45845 98.9799C7.35111 98.6921 7.1371 98.4567 6.86082 98.3225C6.64366 98.2224 6.41476 98.1501 6.17952 98.1073C5.82131 98.0843 5.46199 98.0843 5.10378 98.1073H3.58579L2.61763 101.884ZM3.99218 96.5655H4.86473C5.67887 96.6136 6.4939 96.4873 7.25526 96.1949C7.50442 96.0647 7.72223 95.8817 7.89356 95.6588C8.06488 95.4359 8.1856 95.1783 8.24733 94.904C8.42662 94.2466 8.34295 93.7805 7.99632 93.5295C7.3088 93.1859 6.53774 93.045 5.77313 93.1231H4.90059L3.99218 96.5655Z" fill="#6E6F71"/>
<path d="M16.9847 103.51L20.1163 91.5095H22.3634L21.204 95.932H28.017L29.1645 91.5095H31.4116L28.28 103.51H26.0329L27.5509 97.677H20.7498L19.2318 103.51H16.9847Z" fill="#6E6F71"/>
<path d="M46.4241 103.51L45.6711 100.402H40.1729L37.7823 103.498H35.3918L45.4201 91.0314L48.7907 103.51H46.4241ZM41.4398 98.7886H45.2886L44.5953 96.0515C44.5953 95.8722 44.5236 95.6809 44.4878 95.4538C44.4519 95.2267 44.4878 94.9757 44.416 94.6889C44.2846 94.9518 44.1292 95.1909 43.9977 95.418L43.5674 96.0515L41.4398 98.7886Z" fill="#6E6F71"/>
<path d="M59.4525 98.1312L58.0421 103.51H55.9384L59.07 91.5573H62.1538C62.8579 91.5419 63.5619 91.5899 64.2574 91.7007C64.6921 91.7712 65.1026 91.9477 65.4527 92.2147C65.8199 92.5206 66.0727 92.9419 66.1699 93.4099C66.2818 93.9057 66.2818 94.4202 66.1699 94.916C65.9656 95.7964 65.4786 96.5857 64.7834 97.1631C64.0076 97.6948 63.094 97.9896 62.1538 98.0117L65.5005 103.474H62.9068L59.7632 98.1312H59.4525ZM59.9784 96.6133H60.3967C61.21 96.6645 62.0248 96.5423 62.7873 96.2547C63.0237 96.1203 63.2283 95.9365 63.3872 95.7158C63.546 95.495 63.6553 95.2426 63.7076 94.9757C63.8194 94.7452 63.8543 94.4849 63.8069 94.2331C63.7596 93.9813 63.6326 93.7514 63.4447 93.5773C62.7701 93.2616 62.0206 93.1415 61.2812 93.2307H60.8748L59.9784 96.6133Z" fill="#6E6F71"/>
<path d="M81.7442 103.51L80.9792 100.402H75.5168L73.1263 103.498H70.7358L80.6565 91.0194L84.1227 103.51H81.7442ZM76.748 98.7886H80.6206L79.9154 96.0515C79.8696 95.8542 79.8337 95.6547 79.8078 95.4539C79.8078 95.2268 79.8078 94.9758 79.7361 94.6889C79.609 94.9388 79.4693 95.1821 79.3178 95.418L78.8994 96.0515L76.748 98.7886Z" fill="#6E6F71"/>
<path d="M97.3663 93.1589L94.665 103.51H92.4298L95.1072 93.1589H91.4497L91.88 91.5095H101.454L101.012 93.1589H97.3663Z" fill="#6E6F71"/>
<path d="M117.602 103.51L120.722 91.5095H122.981L119.837 103.51H117.602Z" fill="#6E6F71"/>
<path d="M128.921 103.51L132.172 91.0314L139.057 98.3583C139.224 98.5615 139.404 98.8006 139.595 99.0157C139.786 99.2309 139.966 99.5297 140.157 99.8285L142.32 91.4617H144.4L141.161 103.988L134.145 96.5296C133.965 96.3264 133.786 96.1232 133.619 95.8961C133.451 95.6722 133.299 95.4365 133.164 95.1909L130.989 103.558L128.921 103.51Z" fill="#6E6F71"/>
<path d="M157.452 93.1589L154.763 103.51H152.504L155.205 93.1589H151.536L151.978 91.5095H161.54L161.122 93.1589H157.452Z" fill="#6E6F71"/>
<path d="M165.963 103.51L169.094 91.5095H176.827L176.385 93.1589H170.923L170.134 96.171H175.596L175.154 97.8802H169.692L168.676 101.765H174.15L173.696 103.51H165.963Z" fill="#6E6F71"/>
<path d="M185.625 98.1312L184.214 103.51H182.111L185.23 91.5573H188.374C189.074 91.5408 189.774 91.5888 190.465 91.7007C190.899 91.7753 191.308 91.9514 191.661 92.2147C192.02 92.5254 192.268 92.9452 192.366 93.4099C192.484 93.905 192.484 94.4209 192.366 94.916C192.166 95.7981 191.678 96.5886 190.979 97.1631C190.225 97.7475 189.314 98.093 188.362 98.1552L191.697 103.618H189.163L185.959 98.2388L185.625 98.1312ZM186.151 96.6133H186.569C187.382 96.6645 188.197 96.5423 188.959 96.2547C189.194 96.1185 189.398 95.9342 189.556 95.7137C189.715 95.4933 189.825 95.2418 189.88 94.9757C190.047 94.3183 189.963 93.8522 189.617 93.5773C188.934 93.2321 188.166 93.091 187.406 93.1709H186.999L186.151 96.6133Z" fill="#6E6F71"/>
<path d="M198.785 103.51L201.916 91.5095H209.626L209.195 93.1589H203.733L202.956 96.1471H208.418L207.976 97.8683H202.502L201.044 103.51H198.785Z" fill="#6E6F71"/>
<path d="M223.216 103.51L222.451 100.402H216.976L214.586 103.498H212.195L222.14 91.0194L225.582 103.498L223.216 103.51ZM218.231 98.7886H222.092L221.387 96.0515C221.387 95.8722 221.327 95.681 221.291 95.4539C221.253 95.2005 221.229 94.945 221.22 94.6889C221.076 94.9518 220.921 95.1909 220.777 95.418C220.65 95.6372 220.511 95.8487 220.359 96.0515L218.231 98.7886Z" fill="#6E6F71"/>
<path d="M245.866 94.4259C245.358 93.9714 244.771 93.6147 244.133 93.3741C243.438 93.1285 242.706 93.0071 241.969 93.0155C240.53 93.0007 239.124 93.4444 237.953 94.2825C236.832 95.0648 236.026 96.222 235.682 97.5456C235.499 98.0857 235.455 98.6631 235.553 99.2249C235.651 99.7866 235.889 100.315 236.244 100.761C236.639 101.198 237.129 101.54 237.675 101.759C238.222 101.979 238.812 102.071 239.4 102.028C240.211 102.019 241.016 101.89 241.79 101.645C242.634 101.348 243.437 100.946 244.181 100.45L243.619 102.649C242.927 103.029 242.187 103.315 241.42 103.498C240.637 103.688 239.834 103.78 239.029 103.773C238.074 103.791 237.123 103.641 236.22 103.331C235.448 103.054 234.752 102.6 234.188 102.004C233.673 101.429 233.318 100.728 233.16 99.972C233.017 99.1445 233.058 98.2957 233.28 97.4858C233.517 96.5926 233.923 95.7528 234.475 95.0116C235.09 94.2273 235.829 93.5489 236.662 93.0036C237.489 92.421 238.4 91.9695 239.364 91.6649C240.332 91.3678 241.339 91.2187 242.352 91.2226C243.115 91.2132 243.876 91.3138 244.611 91.5214C245.286 91.7254 245.923 92.0361 246.499 92.4418L245.866 94.4259Z" fill="#6E6F71"/>
<path d="M252.129 103.51L255.249 91.5095H262.958L262.528 93.1589H257.066L256.277 96.171H261.751L261.297 97.8802H255.834L254.807 101.765H260.293L259.839 103.51H252.129Z" fill="#6E6F71"/>
<path d="M279.931 103.51L283.063 91.5095H290.772L290.342 93.1589H284.879L284.103 96.1471H289.565L289.111 97.8683H283.648L282.178 103.51H279.931Z" fill="#6E6F71"/>
<path d="M311.665 97.5336C311.426 98.4006 311.02 99.2125 310.47 99.9241C309.874 100.715 309.151 101.402 308.331 101.956C307.485 102.551 306.554 103.014 305.569 103.331C304.619 103.638 303.627 103.795 302.629 103.797C301.703 103.811 300.782 103.649 299.916 103.319C299.136 103.034 298.435 102.567 297.872 101.956C297.339 101.392 296.967 100.694 296.796 99.9361C296.628 99.1444 296.657 98.3236 296.88 97.5456C297.125 96.6809 297.53 95.87 298.075 95.155C298.677 94.3694 299.399 93.6836 300.215 93.1231C301.062 92.531 301.993 92.0678 302.976 91.7485C303.934 91.4445 304.934 91.2912 305.94 91.2943C306.865 91.2784 307.784 91.4323 308.653 91.7485C309.427 92.0441 310.123 92.5145 310.685 93.1231C311.222 93.6994 311.593 94.4095 311.761 95.1789C311.924 95.9705 311.899 96.7891 311.689 97.5695M309.299 97.5695C309.453 97.0004 309.477 96.4041 309.37 95.8244C309.26 95.2886 309.013 94.7905 308.653 94.3781C308.283 93.9482 307.816 93.6123 307.291 93.398C306.695 93.1727 306.063 93.0592 305.426 93.0633C304.739 93.0635 304.057 93.1766 303.406 93.398C302.73 93.6256 302.093 93.9562 301.518 94.3781C300.933 94.7517 300.423 95.2298 300.011 95.7885C299.624 96.3115 299.34 96.9039 299.175 97.5336C299.013 98.0892 298.989 98.6757 299.103 99.2428C299.203 99.7856 299.452 100.29 299.82 100.701C300.197 101.134 300.673 101.47 301.207 101.681C301.798 101.909 302.426 102.022 303.059 102.016C303.742 102.01 304.42 101.897 305.067 101.681C305.744 101.454 306.381 101.123 306.956 100.701C307.547 100.29 308.068 99.785 308.498 99.207C308.871 98.6916 309.146 98.1123 309.311 97.4978" fill="#6E6F71"/>
<path d="M322.028 98.1313L320.63 103.51H318.526L321.646 91.5573H324.777C325.481 91.5409 326.186 91.5889 326.881 91.7007C327.314 91.7761 327.724 91.9522 328.076 92.2147C328.44 92.5219 328.688 92.9432 328.782 93.41C328.912 93.9035 328.912 94.4225 328.782 94.916C328.572 95.7973 328.081 96.5863 327.383 97.1631C326.626 97.7498 325.71 98.0954 324.753 98.1552L328.1 103.618H325.554L322.351 98.2388L322.028 98.1313ZM322.554 96.6133H322.973C323.809 96.6715 324.649 96.5492 325.435 96.2547C325.67 96.1185 325.873 95.9342 326.032 95.7137C326.19 95.4933 326.301 95.2418 326.355 94.9758C326.522 94.3184 326.439 93.8522 326.092 93.5773C325.414 93.2606 324.66 93.1406 323.917 93.2307H323.51L322.554 96.6133Z" fill="#6E6F71"/>
<path d="M359.679 97.5695C359.679 97.4858 359.679 97.2348 359.775 96.8045C359.87 96.3742 359.846 96.171 359.87 95.9439C359.739 96.2069 359.584 96.4818 359.416 96.7567C359.249 97.0316 359.034 97.3065 358.807 97.5934L353.523 103.988L351.599 97.4499C351.527 97.187 351.456 96.924 351.408 96.673C351.36 96.422 351.336 96.171 351.324 95.932C351.241 96.183 351.145 96.4459 351.049 96.7089C350.927 97.0077 350.787 97.299 350.631 97.5814L347.607 103.498H345.539L352.077 90.9836L354.169 98.5496C354.169 98.6691 354.241 98.8723 354.312 99.1592C354.384 99.446 354.432 99.7927 354.504 100.199C354.802 99.7396 355.125 99.2968 355.472 98.8723L355.723 98.5496L361.699 90.9836L361.783 103.498H359.691L359.679 97.5695Z" fill="#6E6F71"/>
<path d="M385.126 97.5336C384.889 98.4012 384.483 99.2135 383.931 99.9241C383.332 100.713 382.61 101.399 381.791 101.956C380.944 102.548 380.014 103.011 379.03 103.331C378.076 103.638 377.08 103.795 376.078 103.797C375.152 103.81 374.231 103.648 373.365 103.319C372.585 103.034 371.884 102.567 371.321 101.956C370.792 101.388 370.421 100.692 370.245 99.9361C370.083 99.1439 370.112 98.3245 370.329 97.5456C370.574 96.6809 370.979 95.8699 371.524 95.155C372.119 94.3669 372.837 93.6806 373.652 93.1231C374.499 92.531 375.43 92.0677 376.413 91.7485C377.371 91.4435 378.371 91.2903 379.377 91.2943C380.298 91.2774 381.214 91.4314 382.078 91.7485C382.858 92.0409 383.558 92.5116 384.122 93.1231C384.659 93.6994 385.03 94.4095 385.198 95.1789C385.368 95.9705 385.339 96.7918 385.114 97.5695M382.784 97.5695C382.938 97.0004 382.962 96.4041 382.855 95.8244C382.745 95.2886 382.498 94.7905 382.138 94.3781C381.757 93.9498 381.283 93.6145 380.752 93.398C380.165 93.1715 379.54 93.058 378.911 93.0633C378.22 93.0627 377.533 93.1757 376.879 93.398C376.2 93.6279 375.559 93.9583 374.978 94.3781C374.415 94.7758 373.923 95.2646 373.52 95.8244C373.128 96.3447 372.844 96.9379 372.684 97.5695C372.53 98.1264 372.506 98.7109 372.612 99.2787C372.717 99.8198 372.965 100.323 373.329 100.737C373.706 101.17 374.182 101.506 374.716 101.717C375.303 101.942 375.927 102.056 376.556 102.052C377.243 102.048 377.925 101.935 378.576 101.717C379.252 101.489 379.889 101.159 380.465 100.737C381.048 100.318 381.554 99.8004 381.959 99.207C382.339 98.6926 382.622 98.1134 382.796 97.4977" fill="#6E6F71"/>
<path d="M392.047 103.51L395.286 91.0314L402.171 98.3583L402.721 99.0157C402.912 99.2667 403.091 99.5297 403.282 99.8285L405.458 91.4617H407.526L404.239 103.988L397.222 96.5296C397.034 96.3294 396.859 96.1178 396.696 95.8961C396.529 95.657 396.374 95.4299 396.23 95.1909L394.055 103.558L392.047 103.51Z" fill="#6E6F71"/>
<path d="M413.37 103.51L416.49 91.5095H424.223L423.781 93.1589H418.307L417.542 96.171H423.004L422.55 97.8802H417.088L416.072 101.765H421.558L421.092 103.51H413.37Z" fill="#6E6F71"/>
<path d="M432.483 103.51L433.881 98.0117L430.917 91.5095H433.307L435.148 95.5734C435.148 95.669 435.244 95.8244 435.315 95.9798C435.387 96.1352 435.423 96.3383 435.471 96.5415L435.901 95.9917C436.045 95.8244 436.188 95.669 436.331 95.5256L440.348 91.5095H442.595L436.14 98.0117L434.718 103.51H432.483Z" fill="#6E6F71"/>
</g>
<defs>
<clipPath id="clip0_175_103">
<rect width="457.786" height="104" fill="white"/>
</clipPath>
</defs>
</svg>
