<svg width="295" height="104" viewBox="0 0 295 104" fill="none" xmlns="http://www.w3.org/2000/svg">
<g clip-path="url(#clip0_175_94)">
<mask id="mask0_175_94" style="mask-type:luminance" maskUnits="userSpaceOnUse" x="-25" y="-34" width="345" height="172">
<path d="M-24.639 -33.9198H319.038V137.919H-24.639V-33.9198Z" fill="white"/>
</mask>
<g mask="url(#mask0_175_94)">
<path d="M2.39135 89.3369H4.59502L2.54728 97.8891C2.24338 99.1588 2.30066 100.114 2.72071 100.751C3.13917 101.39 3.91801 101.709 5.05644 101.709C6.18771 101.709 7.11532 101.39 7.84006 100.751C8.5656 100.114 9.08032 99.1588 9.38343 97.8899L11.4312 89.3369H13.6635L11.5656 98.1015C11.1098 100.006 10.2975 101.432 9.13442 102.377C7.97053 103.323 6.44467 103.796 4.55684 103.796C2.66741 103.796 1.37146 103.324 0.665805 102.382C-0.040642 101.44 -0.163952 100.012 0.293488 98.1015L2.39135 89.3369ZM13.3667 103.421L16.8719 88.7793L23.5323 97.3895C23.9338 97.933 24.2949 98.5052 24.6126 99.1015L26.9515 89.3369H29.0136L25.5108 103.967L18.7104 95.2041C18.3361 94.7163 18.0188 94.1872 17.7645 93.6273L15.4201 103.421L13.3667 103.421ZM28.8314 103.421L32.2029 89.3369H34.4337L31.0629 103.421H28.8314ZM34.2706 103.421L37.6421 89.3369H45.3033L44.8379 91.2797H39.4082L38.5673 94.7912H43.997L43.5164 96.8016H38.086L36.5021 103.421L34.2706 103.421ZM44.39 103.421L47.7615 89.3369H49.9922L46.6215 103.421H44.39ZM49.8291 103.421L53.2007 89.3369H60.8618L60.3956 91.2797H54.966L54.1203 94.8103H59.5499L59.0694 96.8215H53.6398L52.5499 101.372H57.9795L57.4895 103.421H49.8291ZM62.7775 101.352H64.6534C65.6844 101.352 66.4752 101.281 67.0241 101.141C67.5702 101.001 68.085 100.759 68.5412 100.428C69.1717 99.9709 69.7063 99.3941 70.1148 98.7308C70.5357 98.0546 70.8547 97.267 71.0695 96.368C71.2835 95.4698 71.3424 94.6838 71.2445 94.0084C71.1474 93.3306 70.8945 92.765 70.4848 92.3091C70.1769 91.9766 69.7704 91.7379 69.2628 91.5963C68.7536 91.4563 67.9263 91.3855 66.7767 91.3855H65.1633L62.7775 101.352ZM60.0511 103.421L63.4227 89.3361H66.4322C68.3893 89.3361 69.7417 89.4364 70.4911 89.6385C71.2389 89.8413 71.8571 90.1802 72.3432 90.6544C72.9876 91.2765 73.3989 92.0752 73.5755 93.049C73.7505 94.0243 73.6892 95.1373 73.3901 96.3879C73.091 97.6385 72.6208 98.7467 71.9796 99.7117C71.3563 100.66 70.5481 101.473 69.6033 102.102C68.9036 102.571 68.1282 102.914 67.3113 103.118C66.4959 103.32 65.2803 103.421 63.6597 103.421H63.0599H60.0511ZM84.2557 95.2248H84.8285C86.0656 95.2248 86.924 95.0856 87.4029 94.8103C87.8826 94.5351 88.2048 94.0474 88.3719 93.3481C88.5517 92.5979 88.4586 92.0681 88.091 91.761C87.7235 91.4531 86.9502 91.298 85.768 91.298H85.1953L84.2557 95.2248ZM83.6662 97.0991L82.1531 103.421H80.0624L83.4347 89.3369H86.8102C87.8102 89.3369 88.5334 89.3926 88.9789 89.5048C89.4228 89.6162 89.7895 89.8015 90.0791 90.0585C90.4315 90.3855 90.6631 90.8262 90.7744 91.3807C90.885 91.936 90.8611 92.547 90.702 93.2129C90.5451 93.8722 90.2714 94.4981 89.8938 95.0609C89.5151 95.625 89.0712 96.0681 88.5636 96.3879C88.1439 96.6481 87.6823 96.8336 87.1992 96.936C86.7004 97.0458 85.9518 97.0991 84.9518 97.0991H84.5119H83.6662ZM93.457 97.8899H97.2828L96.644 94.6759C96.6138 94.4714 96.5851 94.2359 96.5605 93.9694C96.5366 93.7029 96.5207 93.4062 96.5111 93.0784C96.2489 93.6273 95.9554 94.1606 95.632 94.6759L93.457 97.8899ZM98.3035 103.421L97.6138 99.7936H92.1746L89.7124 103.421H87.3695L97.5207 88.7793L100.657 103.421H98.3035ZM103.855 103.421L105.397 96.975L102.603 89.3369H104.947L106.681 94.1182C106.721 94.2407 106.769 94.4006 106.825 94.5995C106.88 94.7984 106.934 95.0124 106.985 95.2439C107.125 95.0196 107.269 94.8063 107.413 94.6075C107.557 94.4086 107.702 94.2272 107.85 94.0601L111.933 89.3369H114.165L107.61 96.9742L106.067 103.421H103.855ZM125.147 96.4651C125.148 96.3561 125.18 96.0554 125.242 95.5613C125.29 95.1508 125.327 94.8103 125.354 94.5406C125.217 94.8706 125.06 95.1921 124.884 95.5032C124.693 95.8409 124.485 96.1686 124.261 96.485L118.872 103.989L117.114 96.3314C117.039 96.0164 116.982 95.7109 116.944 95.4165C116.906 95.1222 116.88 94.8302 116.867 94.5406C116.79 94.8366 116.693 95.1452 116.575 95.4698C116.448 95.8144 116.306 96.1531 116.148 96.485L113.016 103.421H110.963L117.721 88.7395L119.645 97.6297C119.673 97.7706 119.713 98.0052 119.763 98.3322C119.812 98.6584 119.87 99.0633 119.938 99.5438C120.165 99.1397 120.493 98.6274 120.924 98.0052C121.039 97.8382 121.126 97.7101 121.185 97.6202L127.269 88.7395L127.074 103.421H125.001L125.147 96.4651ZM128.856 103.421L132.228 89.3369H139.889L139.424 91.2797H133.993L133.149 94.8103H138.578L138.098 96.8215H132.667L131.577 101.372H137.008L136.516 103.421H128.856ZM139.078 103.421L142.583 88.7793L149.243 97.3895C149.645 97.933 150.006 98.5052 150.324 99.1015L152.662 89.3369H154.725L151.222 103.967L144.421 95.2041C144.047 94.7163 143.73 94.1872 143.476 93.6273L141.131 103.421L139.078 103.421ZM161.846 91.2797L158.939 103.421H156.708L159.613 91.2797H155.966L156.431 89.3369H165.939L165.475 91.2797H161.846ZM164.161 100.602L166.146 99.7562C166.165 100.384 166.36 100.864 166.73 101.194C167.101 101.525 167.637 101.689 168.338 101.689C169 101.689 169.573 101.5 170.053 101.121C170.535 100.744 170.852 100.237 171.004 99.6019C171.203 98.7737 170.708 98.0363 169.527 97.3895C169.361 97.2932 169.234 97.2224 169.146 97.1771C167.814 96.4205 166.969 95.7355 166.613 95.123C166.257 94.5104 166.184 93.7618 166.395 92.8771C166.67 91.7292 167.273 90.7992 168.203 90.0871C169.134 89.3751 170.213 89.0187 171.445 89.0187C172.458 89.0187 173.258 89.2192 173.842 89.6202C174.428 90.0219 174.762 90.5971 174.845 91.3465L172.881 92.2709C172.71 91.8286 172.486 91.5048 172.208 91.2988C171.929 91.0935 171.575 90.9909 171.151 90.9909C170.551 90.9909 170.036 91.1524 169.605 91.4714C169.18 91.7871 168.883 92.245 168.767 92.7618C168.565 93.6082 169.151 94.3966 170.527 95.1277L170.775 95.263C171.978 95.9034 172.761 96.5311 173.12 97.1437C173.48 97.7562 173.55 98.5216 173.33 99.438C173.012 100.773 172.348 101.833 171.341 102.618C170.334 103.403 169.133 103.795 167.74 103.795C166.57 103.795 165.678 103.521 165.064 102.968C164.448 102.417 164.147 101.629 164.161 100.602ZM180.649 103.421L184.021 89.3369H186.252L182.881 103.421H180.649ZM186.088 103.421L189.594 88.7793L196.254 97.3895C196.655 97.933 197.016 98.5052 197.334 99.1015L199.672 89.3369H201.735L198.232 103.967L191.432 95.2041C191.059 94.7155 190.741 94.1866 190.485 93.6273L188.142 103.421L186.088 103.421ZM208.856 91.2797L205.949 103.421H203.719L206.624 91.2797H202.976L203.442 89.3369H212.95L212.485 91.2797H208.856ZM211.286 103.421L214.657 89.3369H222.318L221.854 91.2797H216.424L215.579 94.8103H221.008L220.527 96.8215H215.097L214.007 101.372H219.438L218.947 103.421H211.286ZM225.674 95.3386H226.078C227.259 95.3386 228.077 95.1993 228.532 94.9169C228.988 94.6337 229.303 94.1341 229.473 93.4149C229.659 92.6401 229.583 92.0927 229.241 91.7761C228.903 91.4563 228.17 91.2988 227.046 91.2988H226.641L225.674 95.3386ZM225.108 97.119L223.598 103.421H221.508L224.88 89.3361H227.993C228.906 89.3361 229.599 89.3966 230.073 89.5191C230.547 89.6408 230.929 89.8421 231.217 90.1253C231.561 90.4642 231.784 90.905 231.887 91.4436C231.988 91.9814 231.962 92.5716 231.809 93.2121C231.539 94.3417 231.062 95.2248 230.377 95.8636C229.693 96.5009 228.817 96.8851 227.749 97.0124L230.942 103.421H228.419L225.361 97.1182L225.108 97.119ZM232.264 103.421L235.636 89.3369H243.297L242.832 91.2797H237.402L236.561 94.7912H241.992L241.51 96.8016H236.081L234.496 103.421L232.264 103.421ZM245.883 97.8899H249.71L249.071 94.6759C249.039 94.4714 249.012 94.2359 248.988 93.9694C248.964 93.7029 248.948 93.4062 248.938 93.0784C248.676 93.6273 248.383 94.1605 248.058 94.6751L245.883 97.8899ZM250.731 103.421L250.041 99.7936H244.602L242.14 103.421H239.796L249.947 88.7793L253.084 103.421H250.731ZM267.611 92.761C267.139 92.2291 266.557 91.8057 265.906 91.5199C265.269 91.2455 264.563 91.1062 263.787 91.1062C262.288 91.1062 260.947 91.6003 259.771 92.5876C258.593 93.5756 257.817 94.8549 257.44 96.4269C257.077 97.9472 257.235 99.2002 257.914 100.187C258.594 101.176 259.631 101.67 261.024 101.67C261.838 101.67 262.646 101.522 263.451 101.227C264.256 100.933 265.068 100.487 265.885 99.8891L265.265 102.478C264.584 102.91 263.845 103.243 263.07 103.468C262.297 103.688 261.497 103.798 260.693 103.795C259.643 103.795 258.714 103.62 257.909 103.266C257.124 102.931 256.441 102.393 255.933 101.708C255.425 101.035 255.1 100.242 254.961 99.3267C254.819 98.4134 254.872 97.4396 255.119 96.407C255.366 95.3744 255.779 94.4046 256.356 93.4969C256.932 92.5894 257.652 91.7819 258.488 91.1062C259.301 90.434 260.221 89.9022 261.209 89.5327C262.176 89.1778 263.173 88.9996 264.199 88.9996C265.005 88.9996 265.745 89.1198 266.418 89.3608C267.103 89.6064 267.737 89.9768 268.287 90.4531L267.611 92.761ZM267.826 103.421L271.198 89.3369H278.859L278.393 91.2797H272.965L272.119 94.8103H277.549L277.067 96.8215H271.638L270.549 101.372H275.978L275.487 103.421H267.826Z" fill="#696A6A"/>
<path d="M227.123 77.0632H211.782L233.117 0.0103429H248.459L227.123 77.0632ZM219.158 2.44632C218.095 0.980126 216.454 0.240258 214.226 0.240258H129.869L125.691 15.3318H141.04V15.3231H202.433L197.966 31.4504H136.573L136.578 31.417H121.235L108.501 77.3894H123.852L132.398 46.5332H201.408C203.564 46.5332 205.593 45.7982 207.5 44.328C209.403 42.8562 210.656 41.0416 211.257 38.8745L219.802 8.01197C220.426 5.7725 220.21 3.91411 219.158 2.44632ZM99.5621 72.2533C99.1496 73.7378 98.2621 75.0462 97.0354 75.9784C95.8087 76.9105 94.3104 77.4151 92.7697 77.4149H13.6189C11.4622 77.4149 9.85917 76.6798 8.80507 75.2112C7.75176 73.741 7.52583 71.9224 8.12806 69.7561L27.4408 0.235487H42.7949L25.5458 62.3281H86.9669L104.217 0.235487H119.569L99.5621 72.2533Z" fill="#66686C"/>
<path d="M274.954 0.15432L294.376 38.7806L253.547 77.3966L274.954 0.15432Z" fill="#27803B"/>
<path d="M261.339 0.15432L280.747 38.7806L239.901 77.3966L261.339 0.15432Z" fill="#E9661C"/>
</g>
</g>
<defs>
<clipPath id="clip0_175_94">
<rect width="294.379" height="104" fill="white"/>
</clipPath>
</defs>
</svg>
